
<svg xmlns="http://www.w3.org/2000/svg" xmlns:xlink="http://www.w3.org/1999/xlink" width="1800" zoomAndPan="magnify" viewBox="0 0 1350 209.999996" height="280" preserveAspectRatio="xMidYMid meet" version="1.0"><defs><g/><clipPath id="2f7d9ad331"><path d="M 73.824219 81.410156 L 85.976562 81.410156 L 85.976562 148.917969 L 73.824219 148.917969 Z M 73.824219 81.410156 " clip-rule="nonzero"/></clipPath><clipPath id="355784e224"><path d="M 73.824219 142.839844 L 73.824219 87.484375 C 73.824219 86.679688 73.976562 85.90625 74.285156 85.160156 C 74.59375 84.414062 75.03125 83.757812 75.601562 83.1875 C 76.171875 82.621094 76.828125 82.179688 77.574219 81.871094 C 78.316406 81.5625 79.09375 81.410156 79.898438 81.410156 C 80.703125 81.410156 81.480469 81.5625 82.222656 81.871094 C 82.96875 82.179688 83.625 82.621094 84.195312 83.1875 C 84.765625 83.757812 85.203125 84.414062 85.511719 85.160156 C 85.820312 85.90625 85.976562 86.679688 85.976562 87.484375 L 85.976562 142.839844 C 85.976562 143.648438 85.820312 144.421875 85.511719 145.167969 C 85.203125 145.910156 84.765625 146.566406 84.195312 147.136719 C 83.625 147.707031 82.96875 148.144531 82.222656 148.453125 C 81.480469 148.761719 80.703125 148.917969 79.898438 148.917969 C 79.09375 148.917969 78.316406 148.761719 77.574219 148.453125 C 76.828125 148.144531 76.171875 147.707031 75.601562 147.136719 C 75.03125 146.566406 74.59375 145.910156 74.285156 145.167969 C 73.976562 144.421875 73.824219 143.648438 73.824219 142.839844 Z M 73.824219 142.839844 " clip-rule="nonzero"/></clipPath><clipPath id="623f8a7b2a"><path d="M 73.824219 110.4375 L 85.976562 110.4375 L 85.976562 148.917969 L 73.824219 148.917969 Z M 73.824219 110.4375 " clip-rule="nonzero"/></clipPath><clipPath id="e584a12eca"><path d="M 73.824219 142.839844 L 73.824219 116.511719 C 73.824219 115.707031 73.976562 114.933594 74.285156 114.1875 C 74.59375 113.445312 75.03125 112.785156 75.601562 112.21875 C 76.171875 111.648438 76.828125 111.207031 77.574219 110.898438 C 78.316406 110.589844 79.09375 110.4375 79.898438 110.4375 C 80.703125 110.4375 81.480469 110.589844 82.222656 110.898438 C 82.96875 111.207031 83.625 111.648438 84.195312 112.21875 C 84.765625 112.785156 85.203125 113.445312 85.511719 114.1875 C 85.820312 114.933594 85.976562 115.707031 85.976562 116.511719 L 85.976562 142.839844 C 85.976562 143.648438 85.820312 144.421875 85.511719 145.167969 C 85.203125 145.910156 84.765625 146.566406 84.195312 147.136719 C 83.625 147.707031 82.96875 148.144531 82.222656 148.453125 C 81.480469 148.761719 80.703125 148.917969 79.898438 148.917969 C 79.09375 148.917969 78.316406 148.761719 77.574219 148.453125 C 76.828125 148.144531 76.171875 147.707031 75.601562 147.136719 C 75.03125 146.566406 74.59375 145.910156 74.285156 145.167969 C 73.976562 144.421875 73.824219 143.648438 73.824219 142.839844 Z M 73.824219 142.839844 " clip-rule="nonzero"/></clipPath><clipPath id="c4474c9235"><path d="M 72.910156 62.949219 L 85.972656 62.949219 L 85.972656 76.011719 L 72.910156 76.011719 Z M 72.910156 62.949219 " clip-rule="nonzero"/></clipPath><clipPath id="2fbbadbb22"><path d="M 79.441406 62.949219 C 80.308594 62.949219 81.140625 63.113281 81.941406 63.445312 C 82.742188 63.777344 83.449219 64.25 84.058594 64.863281 C 84.671875 65.476562 85.144531 66.179688 85.476562 66.980469 C 85.808594 67.78125 85.972656 68.613281 85.972656 69.480469 C 85.972656 70.347656 85.808594 71.179688 85.476562 71.980469 C 85.144531 72.78125 84.671875 73.488281 84.058594 74.101562 C 83.449219 74.710938 82.742188 75.183594 81.941406 75.515625 C 81.140625 75.847656 80.308594 76.011719 79.441406 76.011719 C 78.574219 76.011719 77.742188 75.847656 76.941406 75.515625 C 76.140625 75.183594 75.433594 74.710938 74.824219 74.101562 C 74.210938 73.488281 73.738281 72.78125 73.40625 71.980469 C 73.074219 71.179688 72.910156 70.347656 72.910156 69.480469 C 72.910156 68.613281 73.074219 67.78125 73.40625 66.980469 C 73.738281 66.179688 74.210938 65.476562 74.824219 64.863281 C 75.433594 64.25 76.140625 63.777344 76.941406 63.445312 C 77.742188 63.113281 78.574219 62.949219 79.441406 62.949219 L 79.441406 65.5625 C 78.359375 65.5625 77.433594 65.945312 76.667969 66.710938 C 75.90625 67.476562 75.523438 68.398438 75.523438 69.480469 C 75.523438 70.5625 75.90625 71.488281 76.667969 72.253906 C 77.433594 73.019531 78.359375 73.398438 79.441406 73.398438 C 80.523438 73.398438 81.445312 73.019531 82.210938 72.253906 C 82.976562 71.488281 83.359375 70.5625 83.359375 69.480469 C 83.359375 68.398438 82.976562 67.476562 82.210938 66.710938 C 81.445312 65.945312 80.523438 65.5625 79.441406 65.5625 Z M 79.441406 62.949219 " clip-rule="nonzero"/></clipPath><clipPath id="d3c5b9c776"><path d="M 74 63 L 86 63 L 86 77 L 74 77 Z M 74 63 " clip-rule="nonzero"/></clipPath><clipPath id="e65ccd39e7"><path d="M 81.074219 63.15625 C 82.066406 63.414062 82.953125 63.878906 83.726562 64.550781 C 84.5 65.226562 85.085938 66.035156 85.476562 66.984375 C 85.871094 67.933594 86.03125 68.921875 85.957031 69.945312 C 85.882812 70.96875 85.585938 71.921875 85.0625 72.804688 C 84.539062 73.691406 83.847656 74.410156 82.984375 74.96875 C 82.125 75.523438 81.183594 75.859375 80.164062 75.972656 C 79.140625 76.085938 78.148438 75.964844 77.1875 75.613281 C 76.222656 75.257812 75.390625 74.707031 74.6875 73.960938 C 74.4375 73.695312 74.320312 73.386719 74.332031 73.023438 C 74.34375 72.664062 74.480469 72.359375 74.742188 72.113281 C 75.003906 71.863281 75.316406 71.746094 75.675781 71.757812 C 76.035156 71.769531 76.339844 71.90625 76.585938 72.167969 C 77.011719 72.617188 77.511719 72.945312 78.089844 73.160156 C 78.667969 73.371094 79.261719 73.445312 79.875 73.375 C 80.484375 73.308594 81.050781 73.105469 81.566406 72.773438 C 82.085938 72.4375 82.5 72.007812 82.816406 71.476562 C 83.128906 70.945312 83.308594 70.375 83.351562 69.757812 C 83.394531 69.144531 83.296875 68.554688 83.0625 67.984375 C 82.828125 67.414062 82.476562 66.929688 82.011719 66.523438 C 81.546875 66.121094 81.015625 65.839844 80.421875 65.6875 C 80.070312 65.597656 79.804688 65.394531 79.621094 65.085938 C 79.4375 64.773438 79.390625 64.445312 79.484375 64.09375 C 79.574219 63.746094 79.773438 63.480469 80.085938 63.296875 C 80.394531 63.113281 80.726562 63.066406 81.074219 63.15625 Z M 81.074219 63.15625 " clip-rule="nonzero"/></clipPath><clipPath id="33936bd08d"><path d="M 985.699219 56.757812 L 1003.078125 56.757812 L 1003.078125 153.3125 L 985.699219 153.3125 Z M 985.699219 56.757812 " clip-rule="nonzero"/></clipPath><clipPath id="fef33ac952"><path d="M 985.699219 144.621094 L 985.699219 65.449219 C 985.699219 64.296875 985.917969 63.1875 986.359375 62.121094 C 986.800781 61.058594 987.429688 60.117188 988.242188 59.304688 C 989.058594 58.488281 990 57.859375 991.0625 57.421875 C 992.128906 56.980469 993.238281 56.757812 994.390625 56.757812 C 995.542969 56.757812 996.648438 56.980469 997.714844 57.421875 C 998.777344 57.859375 999.71875 58.488281 1000.535156 59.304688 C 1001.347656 60.117188 1001.976562 61.058594 1002.417969 62.121094 C 1002.859375 63.1875 1003.078125 64.296875 1003.078125 65.449219 L 1003.078125 144.621094 C 1003.078125 145.773438 1002.859375 146.882812 1002.417969 147.949219 C 1001.976562 149.011719 1001.347656 149.953125 1000.535156 150.765625 C 999.71875 151.582031 998.777344 152.210938 997.714844 152.652344 C 996.648438 153.089844 995.542969 153.3125 994.390625 153.3125 C 993.238281 153.3125 992.128906 153.089844 991.0625 152.652344 C 990 152.210938 989.058594 151.582031 988.242188 150.765625 C 987.429688 149.953125 986.800781 149.011719 986.359375 147.949219 C 985.917969 146.882812 985.699219 145.773438 985.699219 144.621094 Z M 985.699219 144.621094 " clip-rule="nonzero"/></clipPath><clipPath id="a5dfa68235"><path d="M 985.699219 98.277344 L 1003.078125 98.277344 L 1003.078125 153.3125 L 985.699219 153.3125 Z M 985.699219 98.277344 " clip-rule="nonzero"/></clipPath><clipPath id="2a8ad682db"><path d="M 985.699219 144.621094 L 985.699219 106.964844 C 985.699219 105.8125 985.917969 104.707031 986.359375 103.640625 C 986.800781 102.578125 987.429688 101.636719 988.242188 100.820312 C 989.058594 100.007812 990 99.378906 991.0625 98.9375 C 992.128906 98.496094 993.238281 98.277344 994.390625 98.277344 C 995.542969 98.277344 996.648438 98.496094 997.714844 98.9375 C 998.777344 99.378906 999.71875 100.007812 1000.535156 100.820312 C 1001.347656 101.636719 1001.976562 102.578125 1002.417969 103.640625 C 1002.859375 104.707031 1003.078125 105.8125 1003.078125 106.964844 L 1003.078125 144.621094 C 1003.078125 145.773438 1002.859375 146.882812 1002.417969 147.949219 C 1001.976562 149.011719 1001.347656 149.953125 1000.535156 150.765625 C 999.71875 151.582031 998.777344 152.210938 997.714844 152.652344 C 996.648438 153.089844 995.542969 153.3125 994.390625 153.3125 C 993.238281 153.3125 992.128906 153.089844 991.0625 152.652344 C 990 152.210938 989.058594 151.582031 988.242188 150.765625 C 987.429688 149.953125 986.800781 149.011719 986.359375 147.949219 C 985.917969 146.882812 985.699219 145.773438 985.699219 144.621094 Z M 985.699219 144.621094 " clip-rule="nonzero"/></clipPath></defs><rect x="-135" width="1620" fill="#ffffff" y="-21" height="251.999995" fill-opacity="1"/><rect x="-135" width="1620" fill="#ffffff" y="-21" height="251.999995" fill-opacity="1"/><rect x="-135" width="1620" fill="#ffffff" y="-21" height="251.999995" fill-opacity="1"/><g fill="#000000" fill-opacity="1"><g transform="translate(12.452665, 177.674561)"><g><path d="M 10.753906 -137.160156 L 10.753906 0 L 109.480469 0 L 109.480469 -25.386719 L 39.136719 -25.386719 L 39.136719 -137.160156 Z M 10.753906 -137.160156 "/></g></g></g><g fill="#1190cf" fill-opacity="1"><g transform="translate(146.918977, 32.321742)"><g><path d="M -10.753906 137.160156 L -10.753906 0 L -109.480469 0 L -109.480469 25.386719 L -39.136719 25.386719 L -39.136719 137.160156 Z M -10.753906 137.160156 "/></g></g></g><g clip-path="url(#2f7d9ad331)"><g clip-path="url(#355784e224)"><path fill="#ff671f" d="M 73.824219 148.917969 L 73.824219 81.410156 L 85.976562 81.410156 L 85.976562 148.917969 Z M 73.824219 148.917969 " fill-opacity="1" fill-rule="nonzero"/></g></g><g clip-path="url(#623f8a7b2a)"><g clip-path="url(#e584a12eca)"><path fill="#138808" d="M 73.824219 148.917969 L 73.824219 81.410156 L 85.976562 81.410156 L 85.976562 148.917969 Z M 73.824219 148.917969 " fill-opacity="1" fill-rule="nonzero"/></g></g><g clip-path="url(#c4474c9235)"><g clip-path="url(#2fbbadbb22)"><path fill="#000080" d="M 72.910156 62.949219 L 85.972656 62.949219 L 85.972656 76.011719 L 72.910156 76.011719 Z M 72.910156 62.949219 " fill-opacity="1" fill-rule="nonzero"/></g></g><g clip-path="url(#d3c5b9c776)"><g clip-path="url(#e65ccd39e7)"><path fill="#000080" d="M 72.910156 62.949219 L 85.972656 62.949219 L 85.972656 76.011719 L 72.910156 76.011719 Z M 72.910156 62.949219 " fill-opacity="1" fill-rule="nonzero"/></g></g><g fill="#000000" fill-opacity="1"><g transform="translate(1010.193258, 149.262586)"><g><path d="M 24.84375 0 L 14.109375 0 L 14.109375 -93.375 L 27.59375 -93.375 L 73.140625 -22.03125 L 74.734375 -22.296875 L 74.734375 -93.375 L 85.40625 -93.375 L 85.40625 0 L 73.90625 0 L 26.4375 -76.328125 L 24.84375 -76.078125 Z M 24.84375 0 "/></g></g><g transform="translate(1109.773892, 149.262586)"><g><path d="M 44.328125 -93.375 C 53.785156 -93.375 61.910156 -91.679688 68.703125 -88.296875 C 75.492188 -84.921875 80.726562 -79.757812 84.40625 -72.8125 C 88.09375 -65.875 89.9375 -57.164062 89.9375 -46.6875 C 89.9375 -36.21875 88.09375 -27.507812 84.40625 -20.5625 C 80.726562 -13.625 75.492188 -8.460938 68.703125 -5.078125 C 61.910156 -1.691406 53.785156 0 44.328125 0 L 14.109375 0 L 14.109375 -93.375 Z M 43.25 -9.328125 C 51.039062 -9.328125 57.488281 -10.539062 62.59375 -12.96875 C 67.707031 -15.394531 71.582031 -19.351562 74.21875 -24.84375 C 76.863281 -30.34375 78.1875 -37.625 78.1875 -46.6875 C 78.1875 -55.800781 76.863281 -63.09375 74.21875 -68.5625 C 71.582031 -74.039062 67.707031 -77.992188 62.59375 -80.421875 C 57.488281 -82.847656 51.039062 -84.0625 43.25 -84.0625 L 25.109375 -84.0625 L 25.109375 -9.328125 Z M 43.25 -9.328125 "/></g></g><g transform="translate(1209.035151, 149.262586)"><g><path d="M 25.109375 0 L 14.109375 0 L 14.109375 -93.375 L 25.109375 -93.375 Z M 25.109375 0 "/></g></g><g transform="translate(1248.318082, 149.262586)"><g><path d="M 84.0625 0 L 72.296875 0 L 63.6875 -25.609375 L 23.890625 -25.609375 L 15.203125 0 L 3.703125 0 L 36.28125 -93.375 L 51.484375 -93.375 Z M 42.984375 -82.078125 L 26.953125 -34.8125 L 60.546875 -34.8125 L 44.578125 -82.078125 Z M 42.984375 -82.078125 "/></g></g></g><g fill="#278fd0" fill-opacity="1"><g transform="translate(585.808745, 149.262586)"><g><path d="M 72.875 -93.375 L 72.875 -84.0625 L 43.625 -84.0625 L 43.625 0 L 32.703125 0 L 32.703125 -84.0625 L 3.453125 -84.0625 L 3.453125 -93.375 Z M 72.875 -93.375 "/></g></g><g transform="translate(662.075118, 149.262586)"><g><path d="M 25.109375 -44.015625 L 25.109375 -9.0625 L 72.6875 -9.0625 L 72.6875 0 L 14.109375 0 L 14.109375 -93.375 L 71.671875 -93.375 L 71.671875 -84.3125 L 25.109375 -84.3125 L 25.109375 -53.078125 L 66.171875 -53.078125 L 66.171875 -44.015625 Z M 25.109375 -44.015625 "/></g></g><g transform="translate(740.960353, 149.262586)"><g><path d="M 51.609375 1.34375 C 43.429688 1.34375 36.148438 -0.53125 29.765625 -4.28125 C 23.378906 -8.03125 18.375 -13.507812 14.75 -20.71875 C 11.132812 -27.9375 9.328125 -36.59375 9.328125 -46.6875 C 9.328125 -56.78125 11.132812 -65.4375 14.75 -72.65625 C 18.375 -79.875 23.378906 -85.351562 29.765625 -89.09375 C 36.148438 -92.84375 43.429688 -94.71875 51.609375 -94.71875 C 60.335938 -94.71875 67.597656 -93.066406 73.390625 -89.765625 C 79.179688 -86.472656 83.351562 -81.503906 85.90625 -74.859375 L 78.890625 -70.203125 L 77.28125 -70.203125 C 74.726562 -75.523438 71.40625 -79.300781 67.3125 -81.53125 C 63.226562 -83.769531 57.992188 -84.890625 51.609375 -84.890625 C 45.734375 -84.890625 40.515625 -83.578125 35.953125 -80.953125 C 31.398438 -78.335938 27.78125 -74.1875 25.09375 -68.5 C 22.414062 -62.820312 21.078125 -55.550781 21.078125 -46.6875 C 21.078125 -37.832031 22.414062 -30.570312 25.09375 -24.90625 C 27.78125 -19.25 31.398438 -15.109375 35.953125 -12.484375 C 40.515625 -9.867188 45.734375 -8.5625 51.609375 -8.5625 C 58.378906 -8.5625 63.914062 -10.082031 68.21875 -13.125 C 72.519531 -16.164062 75.710938 -21.09375 77.796875 -27.90625 L 79.390625 -27.90625 L 86.734375 -24.265625 C 84.523438 -16.003906 80.425781 -9.671875 74.4375 -5.265625 C 68.457031 -0.859375 60.847656 1.34375 51.609375 1.34375 Z M 51.609375 1.34375 "/></g></g><g transform="translate(832.55665, 149.262586)"><g><path d="M 73.640625 -55.5 L 73.640625 -93.375 L 84.5625 -93.375 L 84.5625 0 L 73.640625 0 L 73.640625 -46.1875 L 25.109375 -46.1875 L 25.109375 0 L 14.109375 0 L 14.109375 -93.375 L 25.109375 -93.375 L 25.109375 -55.5 Z M 73.640625 -55.5 "/></g></g></g><g clip-path="url(#33936bd08d)"><g clip-path="url(#fef33ac952)"><path fill="#ff671f" d="M 985.699219 153.3125 L 985.699219 56.757812 L 1003.078125 56.757812 L 1003.078125 153.3125 Z M 985.699219 153.3125 " fill-opacity="1" fill-rule="nonzero"/></g></g><g clip-path="url(#a5dfa68235)"><g clip-path="url(#2a8ad682db)"><path fill="#138808" d="M 985.699219 153.3125 L 985.699219 56.757812 L 1003.078125 56.757812 L 1003.078125 153.3125 Z M 985.699219 153.3125 " fill-opacity="1" fill-rule="nonzero"/></g></g><g fill="#000000" fill-opacity="1"><g transform="translate(181.055538, 149.262586)"><g><path d="M 25.109375 -93.375 L 25.109375 -9.0625 L 70.0625 -9.0625 L 70.0625 0 L 14.109375 0 L 14.109375 -93.375 Z M 25.109375 -93.375 "/></g></g><g transform="translate(255.086298, 149.262586)"><g><path d="M 25.109375 -44.015625 L 25.109375 -9.0625 L 72.6875 -9.0625 L 72.6875 0 L 14.109375 0 L 14.109375 -93.375 L 71.671875 -93.375 L 71.671875 -84.3125 L 25.109375 -84.3125 L 25.109375 -53.078125 L 66.171875 -53.078125 L 66.171875 -44.015625 Z M 25.109375 -44.015625 "/></g></g><g transform="translate(333.971533, 149.262586)"><g><path d="M 49.125 1.34375 C 41.28125 1.34375 34.367188 -0.441406 28.390625 -4.015625 C 22.410156 -7.597656 17.738281 -12.988281 14.375 -20.1875 C 11.007812 -27.382812 9.328125 -36.21875 9.328125 -46.6875 C 9.328125 -57.164062 11.125 -66.003906 14.71875 -73.203125 C 18.320312 -80.398438 23.316406 -85.785156 29.703125 -89.359375 C 36.085938 -92.929688 43.453125 -94.71875 51.796875 -94.71875 C 60.742188 -94.71875 68.085938 -93.109375 73.828125 -89.890625 C 79.578125 -86.679688 83.644531 -81.882812 86.03125 -75.5 L 78.890625 -71.28125 L 77.28125 -71.28125 C 74.851562 -76.132812 71.570312 -79.613281 67.4375 -81.71875 C 63.3125 -83.832031 58.097656 -84.890625 51.796875 -84.890625 C 31.316406 -84.890625 21.078125 -72.15625 21.078125 -46.6875 C 21.078125 -33.445312 23.648438 -23.78125 28.796875 -17.6875 C 33.953125 -11.601562 41.171875 -8.5625 50.453125 -8.5625 C 58.972656 -8.5625 65.351562 -10.5 69.59375 -14.375 C 73.832031 -18.25 75.953125 -24.359375 75.953125 -32.703125 L 75.953125 -40.9375 L 49.375 -40.9375 L 49.375 -49.75 L 86.609375 -49.75 L 86.609375 0 L 76.453125 0 L 76.453125 -12.515625 L 75.109375 -12.84375 C 72.640625 -8.03125 69.203125 -4.460938 64.796875 -2.140625 C 60.390625 0.179688 55.164062 1.34375 49.125 1.34375 Z M 49.125 1.34375 "/></g></g><g transform="translate(431.061054, 149.262586)"><g><path d="M 84.0625 0 L 72.296875 0 L 63.6875 -25.609375 L 23.890625 -25.609375 L 15.203125 0 L 3.703125 0 L 36.28125 -93.375 L 51.484375 -93.375 Z M 42.984375 -82.078125 L 26.953125 -34.8125 L 60.546875 -34.8125 L 44.578125 -82.078125 Z M 42.984375 -82.078125 "/></g></g><g transform="translate(518.824871, 149.262586)"><g><path d="M 25.109375 -93.375 L 25.109375 -9.0625 L 70.0625 -9.0625 L 70.0625 0 L 14.109375 0 L 14.109375 -93.375 Z M 25.109375 -93.375 "/></g></g></g></svg>